<svg xmlns="http://www.w3.org/2000/svg" viewBox="0 0 380.9 521.87" id="cute-mouse-bring-spoon">
  <g>
    <g>
      <path fill="#fff" d="M74.33,521.87c-.53,0-1.06,0-1.6,0-11-.73-20.29-8.89-23.2-20.3-.22-.86-.39-1.71-.54-2.55a57.5,57.5,0,0,1-28.88-13.52C-9,459.82-6.2,410.73,26.43,373.7c16.4-18.62,38.06-30.86,59.48-34a211.46,211.46,0,0,1,12.15-67.06L74.81,259.62A12.93,12.93,0,0,1,69.87,242l.3-.54L57.46,228.14a12.94,12.94,0,0,1,.44-18.29l3-2.82a124.93,124.93,0,0,1,17-13.57c-.76-2.92-1.38-5.9-1.85-8.91-.38-2.41-.66-4.84-.85-7.26a108.87,108.87,0,0,1,3.1-34.93,73.43,73.43,0,0,1-19.54-18.81c-14.85-20.82-18.3-49-8.78-71.86,9.43-22.64,31.21-37.85,54.2-37.85a52.56,52.56,0,0,1,7.32.52c13.26,1.92,26.15,8.86,37.28,20.06A91.8,91.8,0,0,1,162,51.52a113.79,113.79,0,0,1,26.43-5.29c3-.24,6-.36,9-.36a115.12,115.12,0,0,1,16.85,1.25A91.88,91.88,0,0,1,226,27.7C236,15.05,248.43,6.27,262,2.32A58.68,58.68,0,0,1,278.41,0a65.53,65.53,0,0,1,53.8,28.67c14.29,21.31,15.27,50.16,2.48,73.5a75.77,75.77,0,0,1-21.05,24.21q1.41,3.56,2.58,7.15,5.46-4.67,10.79-9.19a30.49,30.49,0,0,1,15.6-7.18,29.33,29.33,0,0,1,25.51,48.92l-.14.18-.7.71c-17.79,17.8-36.28,36.57-55.09,55.95h0a10.76,10.76,0,0,1-.55,15.21l-10.69,10c.36.71.71,1.41,1.06,2.13,2.16,4.45,4.16,8.94,5.94,13.36a219.76,219.76,0,0,1,7.79,22.91,209.09,209.09,0,0,1,7.6,46.14c.39-1.07.81-2.26,1.24-3.6s.82-2.9,1.23-4.71c.33-1.63.6-3.26.79-4.85s.3-3.5.38-5.35a82.83,82.83,0,0,0-.27-10.8c-.18-1.74-.41-3.47-.71-5.22s-.73-3.48-1.21-5.23c-.41-1.43-1-3.18-1.76-5.14-.69-1.71-1.55-3.63-2.76-6.19l-.27-1.38a18.69,18.69,0,0,1,18.89-22.34l1.31,0a47.43,47.43,0,0,1,12,5.23,56.64,56.64,0,0,1,9.73,7.69l.19.19a62.33,62.33,0,0,1,7.51,9.27,68.25,68.25,0,0,1,5.54,10.36,74.29,74.29,0,0,1,3.59,10.89,78.63,78.63,0,0,1,1.82,11.09,98.25,98.25,0,0,1-.54,20.82,107.5,107.5,0,0,1-4.55,20.05A111.19,111.19,0,0,1,367.34,372a118.16,118.16,0,0,1-11.15,16.56c-2.1,2.61-4.22,5.06-6.38,7.39s-4.54,4.64-6.89,6.83q-3.3,3-6.9,6a67,67,0,0,1,11.42,22l6.71,22H139.69a113.31,113.31,0,0,1-9.51,12.43,109.08,109.08,0,0,1-29.44,23.71,38.76,38.76,0,0,1-2,15.11C94.8,514.67,85,521.87,74.33,521.87Z"></path>
      <path fill="#fff" d="M362.23,305.6a55.91,55.91,0,0,0-2.71-8.27,49.33,49.33,0,0,0-4.09-7.7A46,46,0,0,0,350,282.9a39.62,39.62,0,0,0-6.67-5.3,30.19,30.19,0,0,0-7.65-3.34c1.19,2.52,2.27,4.89,3.21,7.22s1.68,4.63,2.33,6.88,1.13,4.51,1.55,6.72.68,4.42.9,6.61a99.22,99.22,0,0,1,.34,13.12c-.1,2.19-.25,4.37-.48,6.55s-.62,4.36-1.06,6.52-1,4.28-1.68,6.38-1.4,4.17-2.22,6.19a71.86,71.86,0,0,1-6.05,11.6c-1.2,1.84-2.43,3.66-3.76,5.42s-2.74,3.47-4.21,5.13A105.06,105.06,0,0,1,315,372,119.73,119.73,0,0,1,300,382.81c4.2-11.39,6.51-24.93,6.51-41a190,190,0,0,0-7.19-50.79,198.15,198.15,0,0,0-7.19-21.13q-2.52-6.27-5.44-12.25c-.87-1.79-1.78-3.55-2.7-5.29-.12-.21-.22-.43-.33-.65l-.25-.43c-.8-1.5-1.62-3-2.46-4.43l-.61-1c-.72-1.24-1.46-2.45-2.2-3.66l-.63-1q-1.3-2.07-2.66-4.08,4.17-4.35,8.35-8.68c2.34,2.13,4.6,4.34,6.75,6.64l5.49-5.11c-2.25-2.42-4.61-4.73-7-7q33.1-34.29,66.81-68l0,0a12.3,12.3,0,0,0-16.69-18q-17.16,14.58-34.19,29.29c0-2.32,0-4.67-.23-7.07a95.32,95.32,0,0,0-12.55-39.27A61,61,0,0,0,319.76,94c9.4-17.17,9.22-39.57-1.69-55.83s-32.53-25-51.33-19.49c-10.93,3.19-20.29,10.63-27.34,19.57a76.46,76.46,0,0,0-14,28.71,97.64,97.64,0,0,0-71.52,6.26A78.31,78.31,0,0,0,136.6,46.42c-7.71-7.77-17.28-13.71-27.63-15.2-17.79-2.58-36,9.3-43.37,27s-4.15,39.88,6.93,55.42a56.81,56.81,0,0,0,26.24,20.17,95.62,95.62,0,0,0-6.69,42.11c.16,2,.4,4,.7,6a71.18,71.18,0,0,0,5.8,19.17,105.38,105.38,0,0,0-26,18.27l5.18,5.42a97.89,97.89,0,0,1,24.33-17.07,69.05,69.05,0,0,0,7.52,10.13,114.37,114.37,0,0,0-22.92,28.94l6.54,3.67A107.69,107.69,0,0,1,115,223.22a85.14,85.14,0,0,0,19.94,13.4,172.26,172.26,0,0,0-12.68,22.16c-12.15,25.29-19.3,54.77-19.3,83.07,0,2.47.07,4.88.17,7.23h0c-2.38,2.29-4.75,4.61-7.12,6.9-19,.2-40.39,10.39-56.77,29-25.92,29.41-29.42,68.69-7.83,87.72,9.27,8.17,21.66,11.26,34.84,9.83,0,.74,0,1.49-.08,2.23-.3,4-1.11,8.6-.1,12.57,1,3.75,4,7.26,7.84,7.52s7.5-3,8.87-6.74,1.08-7.86.77-11.84c-.21-2.58-.51-5.2-.76-7.82a88.86,88.86,0,0,0,34.65-24.56A94,94,0,0,0,130,435.67H331.16c-4-13.12-12.57-23.19-23.13-28.31a132.76,132.76,0,0,0,23.3-17.06c2.05-1.9,4.05-3.88,6-5.92s3.77-4.21,5.55-6.42a102.16,102.16,0,0,0,9.55-14.17A95.11,95.11,0,0,0,359.34,348a89.3,89.3,0,0,0,3.79-16.72,81.89,81.89,0,0,0,.49-17.15A62.16,62.16,0,0,0,362.23,305.6Z"></path>
      <polygon fill="#cecece" points="249.14 435.67 181.85 435.67 215.49 414.86 253 422.86 249.14 435.67"></polygon>
      <path fill="#f48c8c" d="M209.39,413.32c19.65-4.85,39-8.88,57.05-15.08a177.37,177.37,0,0,0,25.85-11A123.86,123.86,0,0,0,315,372a105.06,105.06,0,0,0,9.58-9.4c1.47-1.66,2.87-3.38,4.21-5.13s2.56-3.58,3.76-5.42a71.86,71.86,0,0,0,6.05-11.6c.82-2,1.54-4.09,2.22-6.19s1.2-4.23,1.68-6.38.8-4.33,1.06-6.52.38-4.36.48-6.55a101,101,0,0,0-.34-13.12q-.33-3.29-.9-6.61c-.42-2.21-.93-4.45-1.55-6.72s-1.43-4.53-2.33-6.88-2-4.7-3.21-7.22a30.19,30.19,0,0,1,7.65,3.34,39.62,39.62,0,0,1,6.67,5.3,46,46,0,0,1,5.44,6.73,49.33,49.33,0,0,1,4.09,7.7,55.91,55.91,0,0,1,2.71,8.27,62.16,62.16,0,0,1,1.39,8.55,81.89,81.89,0,0,1-.49,17.15A89.3,89.3,0,0,1,359.34,348a95.11,95.11,0,0,1-6.92,15.77A102.16,102.16,0,0,1,342.87,378c-1.78,2.2-3.63,4.35-5.55,6.42s-3.94,4-6,5.92a135.32,135.32,0,0,1-27,19.25c-4.83,2.62-9.82,5-14.81,7.06s-10.07,3.9-15.16,5.54a263.33,263.33,0,0,1-30.65,7.63c-10.21,1.93-20.35,3.4-30.41,4.62Z"></path>
      <path fill="#cecece" d="M204.19,406.85l-.61,28.82H78.3c5.57-18.28,19.94-31,36.33-31.93s28.34,4.18,40.74,12.42c0-4.39.16-6.87.16-13C162.39,403.57,197.33,406.45,204.19,406.85Z"></path>
      <path fill="#e8e8e8" d="M102.92,341.85c0,71.43,45.57,93.82,101.81,93.82s101.8-22.39,101.8-93.82a190,190,0,0,0-7.19-50.79,198.15,198.15,0,0,0-7.19-21.13q-2.52-6.27-5.44-12.25c-1-2-2-4-3-5.94a165.56,165.56,0,0,0-12.42-19.81h0c-17.84-24.3-41.1-40.45-66.52-40.45-34,0-64,28.78-82.51,67.31C110.07,284.07,102.92,313.55,102.92,341.85Z"></path>
      <path fill="#f48c8c" d="M129,352.6a78.15,78.15,0,0,0,.87,11.78c4.91,32.21,30.11,50.48,60.46,50.48,32.53,0,59.14-21,61.22-57.62.08-1.53.13-3.07.13-4.64a95,95,0,0,0-6.5-34,90.55,90.55,0,0,0-16.27-27.24,69.86,69.86,0,0,0-7.12-7c-1.09-.94-2.21-1.83-3.34-2.66-8.42-6.24-18-9.93-28.12-9.93-9.38,0-18.28,3.17-26.23,8.6-.63.42-1.25.86-1.87,1.32C142.45,296.36,129,324.91,129,352.6Z"></path>
      <path fill="#cecece" d="M122.22,258.78c10.72,10,25.14,17.26,41.84,21.66,7.95-5.43,16.85-8.6,26.23-8.6,10.14,0,19.7,3.69,28.12,9.93,1.13.83,2.25,1.72,3.34,2.66a146.63,146.63,0,0,0,16.47-2.66c19.65-4.32,36.52-12.5,48.49-24.09-18.55-38-48.36-66.21-82-66.21C170.77,191.47,140.7,220.25,122.22,258.78Z"></path>
      <path fill="#e26f6f" d="M164.06,280.44q2.7.71,5.49,1.32a159,159,0,0,0,34.33,3.59,170.82,170.82,0,0,0,17.87-.92c-1.09-.94-2.21-1.83-3.34-2.66-8.42-6.24-18-9.93-28.12-9.93C180.91,271.84,172,275,164.06,280.44Z"></path>
      <path fill="#cecece" d="M234,435.67h97.14c-5.58-18.28-20-30.69-36.34-31.93C260.88,401.17,240.49,420.8,234,435.67Z"></path>
      <path fill="#e8e8e8" d="M119.69,137.57a57.16,57.16,0,0,1-47.16-23.91C61.45,98.12,58.22,76,65.6,58.24s25.58-29.6,43.37-27c10.35,1.49,19.92,7.43,27.63,15.2,12.5,12.58,19.83,29,22.75,47.17,1.39,8.59.87,17.8-3,25.33a32.53,32.53,0,0,1-17.82,15.21A55.58,55.58,0,0,1,119.69,137.57Z"></path>
      <path fill="#f48c8c" d="M143.45,99.33c-.08-.93-.19-1.89-.35-2.86-2.45-15.18-8.36-27.59-17.59-36.88C119.65,53.7,113.09,50,107,49.09,96.78,47.61,85.19,55,80.64,65.9a35.63,35.63,0,0,0-2.38,16.46,39.89,39.89,0,0,0,41,37.19,40.55,40.55,0,0,0,13.71-2.5c4.11-1.52,7.36-4.13,8.92-7.15C143.25,107.35,143.79,103.59,143.45,99.33Z"></path>
      <path fill="#e8e8e8" d="M272.77,125.4c19.35-2.79,37.4-13.9,47-31.41,9.4-17.17,9.22-39.57-1.69-55.83s-32.53-25-51.33-19.49c-10.93,3.19-20.29,10.63-27.34,19.57C228,52.72,222.79,70.15,222.63,88.56c-.08,8.7,2,17.71,7.45,24.5,5.31,6.61,13.43,10.59,21.78,12.06A66.68,66.68,0,0,0,272.77,125.4Z"></path>
      <path fill="#f48c8c" d="M240.76,91.59c-.07-.93-.1-1.9-.1-2.88.14-15.39,4.48-28.61,12.91-39.3,5.35-6.79,11.82-11.56,18.22-13.43,10.84-3.16,24.59,2.21,31.3,12.22a33.15,33.15,0,0,1,5.3,15.86,38.39,38.39,0,0,1-4.45,21.27c-6.46,11.8-19.08,20.1-33.75,22.21a48.21,48.21,0,0,1-15.22-.19c-4.69-.82-8.63-2.86-10.82-5.58C242.31,99.47,241.1,95.85,240.76,91.59Z"></path>
      <path fill="#e8e8e8" d="M304.16,159.07a76.64,76.64,0,0,1-.3,15.35c-5.19,42.26-46.88,69.33-99.34,73.5-56.24,4.48-104.39-19-111.74-66-.3-1.95-.54-3.95-.7-6C88,124.93,131.26,67.86,189.82,63.2S300.1,108.06,304.16,159.07Z"></path>
      <path fill="#cecece" d="M303.86,174.42c-5.19,42.26-46.88,69.33-99.34,73.5-56.24,4.48-104.39-19-111.74-66,9.09,14.62,23.68,25.9,39.73,32.48,20.8,8.54,43.88,10,66.3,8.43,26.75-1.86,53.73-8.07,76.46-22.31A106.39,106.39,0,0,0,303.86,174.42Z"></path>
      <path fill="#f48c8c" d="M192,172.94c.36,4.5-6.94,11.59-16.58,12.35s-18-5.07-18.34-9.57,7.4-5.95,17-6.72S191.62,168.44,192,172.94Z"></path>
      <path fill="#232323" d="M77.79 224.78l-5.18-5.42A101.94 101.94 0 01127.11 192l1.17 7.41A94.45 94.45 0 0077.79 224.78zM93.26 250.45l-6.54-3.67c10.69-19 25.74-34.05 43.53-43.41l3.49 6.63C117.47 218.57 103.1 232.93 93.26 250.45zM303.52 207a126 126 0 00-63.87-16.5l-.11-7.5a131.8 131.8 0 0167.73 17.5zM290 235a118.49 118.49 0 00-54.49-33l2-7.23a124.33 124.33 0 0158 35.17z"></path>
      <ellipse cx="140.95" cy="151.73" fill="#232323" rx="14.15" ry="18.14" transform="rotate(-4.55 140.83 151.695)"></ellipse>
      <ellipse cx="143.85" cy="144.98" fill="#fff" rx="3.44" ry="5.63" transform="rotate(-34.55 143.833 144.973)"></ellipse>
      <ellipse cx="214.32" cy="145.89" fill="#232323" rx="14.15" ry="18.14" transform="rotate(-4.55 214.178 145.785)"></ellipse>
      <ellipse cx="217.22" cy="139.14" fill="#fff" rx="3.44" ry="5.63" transform="rotate(-34.55 217.202 139.136)"></ellipse>
      <path fill="#fff" d="M171.22,205.59l5,11.68a6.05,6.05,0,0,0,5.89,3.64l5.14-.41a4.51,4.51,0,0,0,4.27-4.27l.71-11.9-11.73-6.5Z"></path>
      <path fill="#232323" d="M158,209.29a42,42,0,0,0,7.47-2.15,26.83,26.83,0,0,0,5.82-3.25,23.09,23.09,0,0,0,4.69-4.58,28.78,28.78,0,0,0,3.7-6.7,11.09,11.09,0,0,1,.88,8.87,14.83,14.83,0,0,1-5.44,7.59,15.52,15.52,0,0,1-8.74,3A12.11,12.11,0,0,1,158,209.29Z"></path>
      <path fill="#232323" d="M203.84,205.65a12.11,12.11,0,0,1-7.83,4.1,15.55,15.55,0,0,1-9.1-1.62,14.74,14.74,0,0,1-6.57-6.63,11.06,11.06,0,0,1-.54-8.9,28.6,28.6,0,0,0,4.71,6,23.54,23.54,0,0,0,5.36,3.79,26.45,26.45,0,0,0,6.26,2.28A41.61,41.61,0,0,0,203.84,205.65Z"></path>
      <path fill="#a0511c" d="M355.27,154.89l0,0q-60.36,60.38-118.75,122.52c-.55.6-1.12,1.2-1.68,1.8Q215.31,300,196.07,321q-37.53,40.86-73.87,82.58h0a26.25,26.25,0,0,1-39.62-34.45c.46-.53,1-1.07,1.47-1.55q9.49-9.29,19-18.48h0q18-17.34,36.19-34.43,18.54-17.41,37.23-34.6,12.53-11.52,25.11-22.94c2.62-2.4,5.26-4.79,7.89-7.17q63.71-57.57,129.06-113.09a12.3,12.3,0,0,1,16.69,18Z"></path>
      <ellipse cx="78.3" cy="419.42" fill="#a0511c" rx="70.99" ry="52.12" transform="rotate(-48.61 78.317 419.44)"></ellipse>
      <path fill="#72340a" d="M114.91,408.54c-2.55,9.61-8,19.79-16.08,29C82.61,455.91,61,464.3,46.55,459a21.08,21.08,0,0,1-6.83-4c-13.6-12-9.19-39.23,9.86-60.84s45.5-29.41,59.1-17.43C116.5,383.57,118.37,395.52,114.91,408.54Z"></path>
      <path fill="#a0511c" d="M139.22,405s-.38-20.61,13.39-36l-32.56,4.09,10.79,33.19Z"></path>
      <path fill="#72340a" d="M234.81,279.25Q215.31,300,196.07,321a66.38,66.38,0,0,0-19.55-40.93q12.53-11.52,25.11-22.94c10.23,4.44,20.26,10.09,28.42,17.3A46.31,46.31,0,0,1,234.81,279.25Z"></path>
      <path fill="#e8e8e8" d="M228.72 250.34l-10.24-1.53c-5.86-.89-21.66-4.2-24.48 3.56-1.29 3.54.6 8 2.67 11.62A150.06 150.06 0 00214 288.16c11.65 13.36 25 25.51 37.63 38 2.85 2.84 6.78 5.91 10.46 4.29 2.19-1 3.39-3.29 4.41-5.44 6.64-13.92 14.13-27.42 18.26-42.32 2.17-7.82 10.81-7.09 4.73-12.46-3.36-3-2.79-12.59-2.79-12.59S242.43 252.35 228.72 250.34zM154.11 287.13l9.32 28.32c1.42 4.32 2.67 9.51-.51 12.95-2.88 3.11-8 3.21-12.39 2.71-9.25-1-29.83-5.07-45.51-13.4 2.73-9.07 25.82-12.24 30.76-20.48a26.66 26.66 0 016.38-7.85C144.91 287.28 150.67 286.26 154.11 287.13z"></path>
      <path fill="#ffc200" d="M114.91,408.54c-2.55,9.61-8,19.79-16.08,29C82.61,455.91,61,464.3,46.55,459a28,28,0,0,1-4.39-10.21,29.32,29.32,0,0,1,10.29-28.27c4.26-3.37,9.46-5.52,13.36-9.3,3.5-3.41,5.74-7.93,9.19-11.39,7.44-7.49,20.15-8.62,29.24-3.26A27.17,27.17,0,0,1,114.91,408.54Z"></path>
      <path fill="#ffc200" d="M95.5,441.07c0,.82-3.06,3.63-3.63,4.45a43.67,43.67,0,0,0-3,5A58.62,58.62,0,0,0,84.6,461.4c-1,3.52-2.23,7.49-2.2,11.15,0,4.53.75,9.18,1.11,13.7.31,4,.6,8.1-.77,11.84s-4.89,7-8.87,6.74S67,501.06,66,497.31c-1-4-.2-8.54.1-12.57a42.67,42.67,0,0,0-2.07-15.09c-1.28-4.31-3.81-8.62-9-9.11,2.15-5.5,4-11.62,7.36-16.46s8.15-9,13.87-10.43a26,26,0,0,1,13.38.64,11.43,11.43,0,0,1,4.21,1.95A6,6,0,0,1,95.5,441.07Z"></path>
    </g>
  </g>
</svg>
